Coordinates
version=1
nRows=15
nColumns=46
inDegrees=yes

Units are S.I. units (second, meters, Newtons, ...)
Angles are in degrees.

endheader
time	pelvis_tilt	pelvis_list	pelvis_rotation	pelvis_tx	pelvis_ty	pelvis_tz	bb_angle	bb_tx	bb_ty	bb_tz	hip_flexion_r	hip_adduction_r	hip_rotation_r	knee_angle_r	knee_angle_r_beta	ankle_angle_r	subtalar_angle_r	mtp_angle_r	crank_angle_r	hip_flexion_l	hip_adduction_l	hip_rotation_l	knee_angle_l	knee_angle_l_beta	ankle_angle_l	subtalar_angle_l	mtp_angle_l	crank_angle_l	lumbar_extension	lumbar_bending	lumbar_rotation	arm_flex_r	arm_add_r	arm_rot_r	elbow_flex_r	pro_sup_r	wrist_flex_r	wrist_dev_r	arm_flex_l	arm_add_l	arm_rot_l	elbow_flex_l	pro_sup_l	wrist_flex_l	wrist_dev_l
      5.00000000	    -19.16717821	      5.21056410	      4.19112487	      0.37404578	      1.20346929	     -0.21532887	      0.00000000	      0.50000000	      0.00000000	      0.25000000	     28.67986408	    -12.57043247	    -11.20135528	     29.48955327	      0.51468980	    -18.92685402	      7.94071668	      0.00000000	      0.00000000	     74.32663697	     -9.02025019	     -0.96969850	    107.67606764	      1.87930191	      9.11073513	      8.94657586	      0.00000000	      0.00000000	    -58.75044995	     -5.37334485	     -4.75247854	     50.81718064	    -28.25037097	     28.53730521	     73.51489147	     48.52345745	      0.00000000	      0.00000000	     68.34128457	    -36.31210840	     54.10339265	     70.62945336	     51.18909222	      0.00000000	      0.00000000
      5.00500000	    -19.20616530	      5.18618663	      4.56761688	      0.37379374	      1.20489162	     -0.21588111	      0.00000000	      0.50000000	      0.00000000	      0.25000000	     28.23521849	    -12.78402593	    -11.50548068	     29.73576775	      0.51898705	    -19.47192037	      7.94430624	      0.00000000	      0.00000000	     75.00857626	     -8.39865682	     -0.95137122	    107.24691958	      1.87181186	      9.26053051	      8.11077528	      0.00000000	      0.00000000	    -58.91961771	     -5.39293198	     -4.96736902	     51.08692636	    -28.11635721	     28.52785430	     72.76775121	     48.40543595	      0.00000000	      0.00000000	     69.84852016	    -36.34288683	     56.06884903	     70.46004730	     51.31061413	      0.00000000	      0.00000000
      5.01000000	    -19.33184574	      5.06782138	      4.79320391	      0.37354223	      1.20631319	     -0.21643909	      0.00000000	      0.50000000	      0.00000000	      0.25000000	     28.05912513	    -12.82177730	    -11.42293848	     30.16911373	      0.52655037	    -19.98701036	      7.87345823	      0.00000000	      0.00000000	     75.69961417	     -7.95135228	     -0.87654799	    106.72087160	      1.86263059	      9.53976150	      7.81885508	      0.00000000	      0.00000000	    -59.05116244	     -5.37018778	     -4.99746732	     51.18929616	    -28.15331945	     28.47928481	     72.68174468	     48.38605325	      0.00000000	      0.00000000	     70.14671939	    -36.16635814	     56.03826089	     70.60141523	     51.32178896	      0.00000000	      0.00000000
      5.01500000	    -19.51718826	      5.01482597	      5.12189864	      0.37328282	      1.20787407	     -0.21723700	      0.00000000	      0.50000000	      0.00000000	      0.25000000	     28.10243262	    -13.03642480	    -11.58468830	     30.96085964	      0.54036894	    -20.32283353	      7.34563501	      0.00000000	      0.00000000	     76.29159950	     -7.35072242	     -0.92791466	    105.99743485	      1.85000424	      9.69251991	      7.68017793	      0.00000000	      0.00000000	    -59.18977275	     -5.32991738	     -5.09325298	     51.40051673	    -28.28308578	     28.33946019	     72.45376192	     48.33441002	      0.00000000	      0.00000000	     70.57871418	    -35.87889490	     56.10534788	     70.81615708	     51.35102064	      0.00000000	      0.00000000
      5.02000000	    -19.64844722	      4.95558209	      5.34352873	      0.37305718	      1.20967788	     -0.21784213	      0.00000000	      0.50000000	      0.00000000	      0.25000000	     28.22474560	    -13.13706615	    -11.45578311	     31.95292053	      0.55768367	    -20.76629588	      6.80542548	      0.00000000	      0.00000000	     76.66411832	     -6.80459050	     -0.93356434	    105.11654324	      1.83462978	     10.01205884	      7.03806917	      0.00000000	      0.00000000	    -59.35937557	     -5.34826237	     -5.14390305	     51.56994953	    -28.36782607	     28.20360934	     72.16015916	     48.27434430	      0.00000000	      0.00000000	     71.04041569	    -35.67443287	     56.32265223	     70.95373060	     51.38389559	      0.00000000	      0.00000000
      5.02500000	    -19.74754931	      4.84364195	      5.55671042	      0.37282862	      1.21152447	     -0.21856648	      0.00000000	      0.50000000	      0.00000000	      0.25000000	     28.44663953	    -13.18602453	    -11.26925834	     33.17779814	      0.57906182	    -20.99175575	      6.20017372	      0.00000000	      0.00000000	     76.86312814	     -6.19431827	     -0.84008076	    104.08739630	      1.81666778	     10.48076033	      6.87362160	      0.00000000	      0.00000000	    -59.57507992	     -5.32148627	     -5.16360271	     51.78561135	    -28.41762056	     28.06861778	     71.97082823	     48.22995130	      0.00000000	      0.00000000	     71.44056732	    -35.52982707	     56.45985743	     71.03579401	     51.40254707	      0.00000000	      0.00000000
      5.03000000	    -19.87142359	      4.78490447	      5.73756348	      0.37260590	      1.21345454	     -0.21921345	      0.00000000	      0.50000000	      0.00000000	      0.25000000	     28.86654831	    -13.24828507	    -10.89810265	     34.66189634	      0.60496422	    -20.95725739	      5.30975473	      0.00000000	      0.00000000	     76.87856292	     -5.64284456	     -0.83306215	    102.87385897	      1.79548755	     11.06420269	      6.67066454	      0.00000000	      0.00000000	    -59.80417804	     -5.32840960	     -5.20719013	     51.99891038	    -28.45386578	     27.92621656	     71.75019089	     48.18056568	      0.00000000	      0.00000000	     71.90455175	    -35.35483471	     56.64781930	     71.14029315	     51.42897336	      0.00000000	      0.00000000
      5.03500000	    -19.98021284	      4.66374694	      5.86763365	      0.37241261	      1.21529356	     -0.21990520	      0.00000000	      0.50000000	      0.00000000	      0.25000000	     29.42023279	    -13.21915438	    -10.42155915	     36.38113804	      0.63497064	    -20.91518111	      4.35182375	      0.00000000	      0.00000000	     76.71776207	     -5.13711336	     -0.76448746	    101.49110233	      1.77135390	     11.66834410	      6.44601057	      0.00000000	      0.00000000	    -60.01144534	     -5.30608879	     -5.18322639	     52.20626051	    -28.41737514	     27.78798564	     71.53540141	     48.13299973	      0.00000000	      0.00000000	     72.33877901	    -35.20568788	     56.86222654	     71.22620604	     51.45613458	      0.00000000	      0.00000000
      5.04000000	    -20.20201707	      4.63148105	      5.93345447	      0.37214477	      1.21706165	     -0.22048354	      0.00000000	      0.50000000	      0.00000000	      0.25000000	     30.22631417	    -13.23161046	     -9.77637709	     38.21944363	      0.66705513	    -20.95101139	      3.18809567	      0.00000000	      0.00000000	     76.42680895	     -4.65683798	     -0.83905259	     99.85133819	      1.74273461	     12.35706373	      6.16740027	      0.00000000	      0.00000000	    -60.11857384	     -5.46269854	     -5.25457032	     52.33191495	    -28.43874690	     27.66453392	     71.29323870	     48.08697284	      0.00000000	      0.00000000	     72.86596291	    -35.12951050	     57.24083961	     71.29482906	     51.49637214	      0.00000000	      0.00000000
      5.04500000	    -20.27052250	      4.36692704	      6.02684893	      0.37209989	      1.21895531	     -0.22096902	      0.00000000	      0.50000000	      0.00000000	      0.25000000	     30.88750487	    -13.03266368	     -9.34868049	     40.11063669	      0.70006268	    -20.91708729	      2.32029838	      0.00000000	      0.00000000	     75.87603245	     -4.35544066	     -0.72815070	     98.09910103	      1.71215231	     13.08507657	      6.11456480	      0.00000000	      0.00000000	    -60.33410204	     -5.30995076	     -5.12963717	     52.50499514	    -28.38314801	     27.53968040	     71.24943960	     48.05620779	      0.00000000	      0.00000000	     73.10384514	    -35.06245134	     57.23361129	     71.38067801	     51.48169068	      0.00000000	      0.00000000
      5.05000000	    -20.35408094	      4.28274801	      6.11288192	      0.37193396	      1.22084229	     -0.22115751	      0.00000000	      0.50000000	      0.00000000	      0.25000000	     31.68961139	    -12.95646369	     -8.77027327	     42.16529956	      0.73592331	    -20.90521358	      1.00175194	      0.00000000	      0.00000000	     75.09011543	     -3.98316308	     -0.72563249	     96.07031688	      1.67674334	     14.01846168	      6.00555180	      0.00000000	      0.00000000	    -60.60030703	     -5.31241620	     -5.16808919	     52.67176515	    -28.32889632	     27.44563243	     71.21255868	     48.03093148	      0.00000000	      0.00000000	     73.51145730	    -35.04960727	     57.32466198	     71.49204693	     51.47511926	      0.00000000	      0.00000000
      5.05500000	    -20.34582807	      3.92526948	      6.12914601	      0.37195787	      1.22248943	     -0.22156128	      0.00000000	      0.50000000	      0.00000000	      0.25000000	     32.45571857	    -12.64719162	     -8.41437259	     44.30264386	      0.77322700	    -20.94292635	      0.01126887	      0.00000000	      0.00000000	     74.17521942	     -3.79229686	     -0.50380296	     94.02120912	      1.64097967	     14.96152974	      5.84029775	      0.00000000	      0.00000000	    -60.81291300	     -5.14843318	     -4.94757956	     52.82692752	    -28.25668977	     27.37733446	     71.22227859	     48.01314252	      0.00000000	      0.00000000	     73.66004557	    -35.04381757	     57.29185377	     71.59158143	     51.45886021	      0.00000000	      0.00000000
      5.06000000	    -20.54916173	      3.55534945	      5.66860903	      0.37204561	      1.22323440	     -0.22232495	      0.00000000	      0.50000000	      0.00000000	      0.25000000	     33.73140635	    -12.12922139	     -7.56683554	     46.65063720	      0.81420722	    -21.14693965	     -1.30859618	      0.00000000	      0.00000000	     73.36655520	     -4.03500216	     -0.48702866	     91.97825761	      1.60532344	     15.95628339	      5.62313082	      0.00000000	      0.00000000	    -60.73789798	     -5.27892064	     -4.55078097	     52.96489463	    -28.33508203	     27.54640114	     71.19515408	     48.02521582	      0.00000000	      0.00000000	     73.76480837	    -35.16943186	     57.53043776	     71.79807487	     51.49292226	      0.00000000	      0.00000000
      5.06500000	    -20.52337005	      2.98423058	      5.53799915	      0.37221628	      1.22423560	     -0.22282558	      0.00000000	      0.50000000	      0.00000000	      0.25000000	     34.63741373	    -11.57897566	     -7.28105580	     48.96209702	      0.85454980	    -21.16900809	     -2.08546653	      0.00000000	      0.00000000	     72.27111015	     -4.02774329	     -0.11990737	     89.76281082	      1.56665659	     16.84468963	      5.07468042	      0.00000000	      0.00000000	    -60.82667187	     -5.02429563	     -4.08814751	     53.12054779	    -28.27858687	     27.56462733	     71.22007265	     48.02026065	      0.00000000	      0.00000000	     73.70436946	    -35.16073802	     57.46019621	     71.93794376	     51.48179420	      0.00000000	      0.00000000
      5.07000000	    -20.40047074	      2.58557179	      5.48080608	      0.37228805	      1.22548498	     -0.22278072	      0.00000000	      0.50000000	      0.00000000	      0.25000000	     35.47615271	    -11.13855611	     -6.88832331	     51.28453398	      0.89508397	    -21.24301245	     -3.09973102	      0.00000000	      0.00000000	     70.92964464	     -4.05022901	      0.02390106	     87.29709249	      1.52362169	     17.55825148	      4.79729194	      0.00000000	      0.00000000	    -61.06564227	     -4.89315457	     -3.76862582	     53.26285277	    -28.27200045	     27.64374260	     71.19760619	     48.02759434	      0.00000000	      0.00000000	     73.83240544	    -35.20206854	     57.49886552	     72.05032344	     51.49751325	      0.00000000	      0.00000000
